<svg xmlns="http://www.w3.org/2000/svg" viewBox="0 0 64 64" fill="none">
  <rect width="64" height="64" rx="14" fill="#1a6fc0" />
  <path d="M22 24c-3 0-6 2-6 7 0 6 7 13 16 13s16-7 16-13c0-5-3-7-6-7" stroke="#fbd989" stroke-width="3" stroke-linecap="round"/>
  <circle cx="26" cy="30" r="2.5" fill="#faf6ef"/>
  <circle cx="38" cy="30" r="2.5" fill="#faf6ef"/>
  <path d="M32 35c-2 0-3 1.5-3 3s1.5 2.5 3 2.5 3-1 3-2.5-1-3-3-3Z" fill="#faf6ef"/>
  <path d="M18 22c-2-3-1-7 1-8 2 2 2 5 2 7M46 22c2-3 1-7-1-8-2 2-2 5-2 7" fill="#f4a623"/>
</svg>
